<?xml version="1.0" encoding="UTF-8"?>
<!-- Generated by Pixelmator Pro 2.4.2 -->
<svg width="120" height="120" viewBox="0 0 120 120" xmlns="http://www.w3.org/2000/svg">
    <path id="Delon-Borges" fill="#000000" fill-rule="evenodd" stroke="none"
          d="M 65.583984 105.304688 C 59.152016 105.304688 57.455078 103.192017 57.455078 99.832031 L 62 99.832031 C 62 101.304024 62.640907 101.943359 65.712891 101.943359 C 68.688896 101.943359 69.392578 101.111427 69.392578 100.023438 C 69.392578 99.031448 68.656937 98.359375 66.960938 98.359375 L 64.496094 98.359375 C 60.784107 98.359375 59.279297 96.82399 59.279297 95 C 59.279297 93.752007 60.080875 92.504326 61.296875 91.736328 C 59.120888 90.584335 58.255859 89.079086 58.255859 86.871094 C 58.255859 83.031113 61.264908 80.664063 65.712891 80.664063 C 69.488892 80.760056 71.664894 79.671082 73.712891 78.455078 L 74.896484 82.199219 C 73.712479 82.679214 72.143997 82.871094 70 82.871094 C 72.143997 83.799088 73.199219 85.047874 73.199219 87.255859 C 73.199219 90.551842 70.480423 92.951172 66.064453 92.951172 C 65.360451 92.951172 64.71933 92.887764 64.111328 92.759766 C 63.759327 92.951767 63.568359 93.3367 63.568359 93.720703 C 63.568359 94.232704 63.791824 94.744141 65.423828 94.744141 L 67.984375 94.744141 C 71.952347 94.744141 74.480469 96.823883 74.480469 99.671875 C 74.480469 103.159859 71.407951 105.304688 65.583984 105.304688 Z M 35.087891 98.744141 C 29.935913 98.744141 26.767578 95.415482 26.767578 89.6875 C 26.767578 84.247513 29.903912 80.664063 35.087891 80.664063 C 40.271873 80.664063 43.408203 83.992737 43.408203 89.720703 C 43.408203 95.160683 40.271873 98.744141 35.087891 98.744141 Z M 84.144531 98.744141 C 78.480568 98.744141 75.599609 95.095184 75.599609 89.783203 C 75.599609 84.695221 78.383186 80.664063 83.535156 80.664063 C 88.399124 80.664063 91.376953 83.863205 91.376953 89.367188 C 91.376953 89.911186 91.3433 90.679405 91.279297 91.191406 L 80.783203 91.191406 C 81.103203 94.231392 82.543045 95.064453 84.623047 95.064453 C 85.999046 95.064453 87.2155 94.584541 88.6875 93.560547 L 90.767578 96.376953 C 89.071579 97.720947 86.896538 98.744141 84.144531 98.744141 Z M 99.599609 98.744141 C 96.655609 98.744141 94.160095 97.720787 92.496094 96.216797 L 94.960938 93.464844 C 96.240936 94.456833 97.808655 95.128906 99.472656 95.128906 C 101.008659 95.128906 101.935547 94.551338 101.935547 93.527344 C 101.935547 92.375351 101.423569 92.024155 98.351563 91.160156 C 94.991562 90.200165 93.328125 88.471649 93.328125 85.847656 C 93.328125 82.935669 95.983513 80.664063 100.271484 80.664063 C 102.735481 80.664063 104.943718 81.464142 106.511719 82.744141 L 104.65625 85.591797 C 103.344254 84.759796 101.936844 84.279297 100.464844 84.279297 C 99.088844 84.279297 98.416016 84.792542 98.416016 85.560547 C 98.416016 86.456543 98.864296 86.840332 101.904297 87.736328 C 105.264297 88.69632 107.152344 90.104546 107.152344 93.144531 C 107.152344 96.66452 103.823578 98.744141 99.599609 98.744141 Z M 8.080078 98.199219 L 8.080078 76.023438 L 14.351563 76.023438 C 20.303539 76.023438 23.951172 77.527512 23.951172 81.6875 C 23.951172 84.503487 21.936665 85.975082 19.888672 86.455078 C 22.352663 86.935074 24.880859 88.152344 24.880859 91.736328 C 24.880859 96.792305 20.784775 98.199219 15.216797 98.199219 L 8.080078 98.199219 Z M 46.416016 98.199219 L 46.416016 81.207031 L 50.832031 81.207031 L 51.248047 84.472656 C 52.016045 82.136673 53.680828 80.728516 55.632813 80.728516 C 56.272812 80.728516 56.784126 80.791168 57.328125 80.951172 L 56.527344 85.847656 C 55.983345 85.719658 55.568188 85.623047 54.992188 85.623047 C 52.912201 85.623047 52.016655 87.160721 51.472656 89.720703 L 51.472656 98.199219 L 46.416016 98.199219 Z M 35.087891 95.03125 C 37.135876 95.03125 38.160156 93.400688 38.160156 89.720703 C 38.160156 85.944717 37.135876 84.376953 35.087891 84.376953 C 33.039906 84.376953 32.015625 86.007515 32.015625 89.6875 C 32.015625 93.463486 33.039906 95.03125 35.087891 95.03125 Z M 13.328125 94.392578 L 15.248047 94.392578 C 17.712038 94.392578 19.472656 93.879257 19.472656 91.447266 C 19.472656 89.207275 17.904804 88.376953 15.632813 88.376953 L 13.328125 88.376953 L 13.328125 94.392578 Z M 65.839844 89.6875 C 67.503845 89.6875 68.400391 88.696136 68.400391 86.744141 C 68.400391 84.85614 67.535851 83.992188 65.839844 83.992188 C 64.271851 83.992188 63.279297 85.048599 63.279297 86.808594 C 63.279297 88.664589 64.303848 89.6875 65.839844 89.6875 Z M 80.751953 88.152344 L 86.416016 88.152344 L 86.416016 87.927734 C 86.384018 85.623749 85.680061 84.023438 83.664063 84.023438 C 81.968063 84.023438 81.007957 85.08036 80.751953 88.152344 Z M 13.328125 84.888672 L 15.279297 84.888672 C 17.455288 84.888672 18.607422 84.055222 18.607422 82.199219 C 18.607422 80.343216 17.391273 79.736328 14.863281 79.736328 L 13.328125 79.736328 L 13.328125 84.888672 Z M 36.400391 43.544922 C 30.736401 43.544922 27.855469 39.895973 27.855469 34.583984 C 27.855469 29.496002 30.64098 25.464844 35.792969 25.464844 C 40.65696 25.464844 43.632813 28.663986 43.632813 34.167969 C 43.632813 34.711967 43.599155 35.480194 43.535156 35.992188 L 33.039063 35.992188 C 33.359062 39.032188 34.800865 39.863281 36.880859 39.863281 C 38.256859 39.863281 39.471359 39.383377 40.943359 38.359375 L 43.023438 41.175781 C 41.327438 42.519775 39.152382 43.544922 36.400391 43.544922 Z M 51.056641 43.544922 C 48.112652 43.544922 46.384766 41.783684 46.384766 38.679688 L 46.384766 19.255859 L 51.439453 18.712891 L 51.439453 38.488281 C 51.439453 39.192284 51.696686 39.544922 52.304688 39.544922 C 52.656685 39.544922 52.912716 39.480766 53.136719 39.384766 L 54.128906 42.96875 C 53.360909 43.28875 52.27264 43.544922 51.056641 43.544922 Z M 63.087891 43.544922 C 57.935905 43.544922 54.767578 40.216255 54.767578 34.488281 C 54.767578 29.048309 57.903904 25.464844 63.087891 25.464844 C 68.271866 25.464844 71.408203 28.791565 71.408203 34.519531 C 71.408203 39.959503 68.271866 43.544922 63.087891 43.544922 Z M 8.080078 43 L 8.080078 20.824219 L 14.255859 20.824219 C 20.175854 20.824219 25.775391 22.648788 25.775391 31.800781 C 25.775391 40.728767 20.400322 43 14.736328 43 L 8.080078 43 Z M 74.416016 43 L 74.416016 26.007813 L 78.832031 26.007813 L 79.183594 28.023438 C 80.623596 26.359436 82.255188 25.464844 84.367188 25.464844 C 87.311188 25.464844 89.072266 27.351982 89.072266 30.583984 L 89.072266 43 L 84.015625 43 L 84.015625 31.447266 C 84.015625 29.655266 83.408012 29.175781 82.416016 29.175781 C 81.296013 29.175781 80.368652 29.976761 79.472656 31.384766 L 79.472656 43 L 74.416016 43 Z M 63.087891 39.832031 C 65.135887 39.832031 66.160156 38.199532 66.160156 34.519531 C 66.160156 30.743538 65.135887 29.175781 63.087891 29.175781 C 61.039906 29.175781 60.015625 30.808281 60.015625 34.488281 C 60.015625 38.264282 61.039906 39.832031 63.087891 39.832031 Z M 13.328125 39.191406 L 15.056641 39.191406 C 18.224638 39.191406 20.335938 37.688774 20.335938 31.800781 C 20.335938 25.848785 18.064184 24.632813 14.992188 24.632813 L 13.328125 24.632813 L 13.328125 39.191406 Z M 33.007813 32.951172 L 38.671875 32.951172 L 38.671875 32.728516 C 38.639874 30.424522 37.935917 28.824219 35.919922 28.824219 C 34.223923 28.824219 33.263813 29.879166 33.007813 32.951172 Z"/>
    <path id="Linha" fill="#d13100" fill-rule="evenodd" stroke="#d13100" stroke-width="4" stroke-linecap="round"
          stroke-linejoin="round" d="M 6 60 L 114 60"/>
</svg>
